<mxfile host="www.draw.io" modified="2020-06-06T02:40:06.586Z" agent="5.0 (Windows NT 10.0; WOW64) AppleWebKit/537.36 (KHTML, like Gecko) Chrome/83.0.4103.61 Safari/537.36" etag="zV6FERTcYp-W1ZyyNxw9" version="13.1.2" type="github">
  <diagram id="U91XGGF9_Khkt9Deenzl" name="第 1 页">
    <mxGraphModel dx="1038" dy="588" grid="1" gridSize="10" guides="1" tooltips="1" connect="1" arrows="1" fold="1" page="1" pageScale="1" pageWidth="827" pageHeight="1169" math="0" shadow="0">
      <root>
        <mxCell id="0" />
        <mxCell id="1" parent="0" />
        <mxCell id="2wxVQ0WupFFMfxbJMV7O-6" value="" style="whiteSpace=wrap;html=1;aspect=fixed;" vertex="1" parent="1">
          <mxGeometry x="130" y="140" width="400" height="400" as="geometry" />
        </mxCell>
        <mxCell id="2wxVQ0WupFFMfxbJMV7O-7" value="" style="endArrow=none;html=1;entryX=0.25;entryY=0;entryDx=0;entryDy=0;exitX=0.25;exitY=1;exitDx=0;exitDy=0;" edge="1" parent="1" source="2wxVQ0WupFFMfxbJMV7O-6" target="2wxVQ0WupFFMfxbJMV7O-6">
          <mxGeometry width="50" height="50" relative="1" as="geometry">
            <mxPoint x="390" y="340" as="sourcePoint" />
            <mxPoint x="440" y="290" as="targetPoint" />
          </mxGeometry>
        </mxCell>
        <mxCell id="2wxVQ0WupFFMfxbJMV7O-8" value="" style="endArrow=none;html=1;entryX=0.5;entryY=0;entryDx=0;entryDy=0;exitX=0.5;exitY=1;exitDx=0;exitDy=0;" edge="1" parent="1" source="2wxVQ0WupFFMfxbJMV7O-6" target="2wxVQ0WupFFMfxbJMV7O-6">
          <mxGeometry width="50" height="50" relative="1" as="geometry">
            <mxPoint x="390" y="340" as="sourcePoint" />
            <mxPoint x="440" y="290" as="targetPoint" />
          </mxGeometry>
        </mxCell>
        <mxCell id="2wxVQ0WupFFMfxbJMV7O-9" value="" style="endArrow=none;html=1;entryX=0.5;entryY=0;entryDx=0;entryDy=0;exitX=0.5;exitY=1;exitDx=0;exitDy=0;" edge="1" parent="1">
          <mxGeometry width="50" height="50" relative="1" as="geometry">
            <mxPoint x="430" y="540" as="sourcePoint" />
            <mxPoint x="430" y="140" as="targetPoint" />
          </mxGeometry>
        </mxCell>
        <mxCell id="2wxVQ0WupFFMfxbJMV7O-10" value="" style="endArrow=none;html=1;entryX=0;entryY=0.75;entryDx=0;entryDy=0;exitX=1;exitY=0.75;exitDx=0;exitDy=0;" edge="1" parent="1" source="2wxVQ0WupFFMfxbJMV7O-6" target="2wxVQ0WupFFMfxbJMV7O-6">
          <mxGeometry width="50" height="50" relative="1" as="geometry">
            <mxPoint x="350" y="560" as="sourcePoint" />
            <mxPoint x="350" y="160" as="targetPoint" />
          </mxGeometry>
        </mxCell>
        <mxCell id="2wxVQ0WupFFMfxbJMV7O-11" value="" style="endArrow=none;html=1;entryX=0;entryY=0.75;entryDx=0;entryDy=0;exitX=1;exitY=0.75;exitDx=0;exitDy=0;" edge="1" parent="1">
          <mxGeometry width="50" height="50" relative="1" as="geometry">
            <mxPoint x="530" y="339.5" as="sourcePoint" />
            <mxPoint x="130" y="339.5" as="targetPoint" />
          </mxGeometry>
        </mxCell>
        <mxCell id="2wxVQ0WupFFMfxbJMV7O-12" value="" style="endArrow=none;html=1;entryX=0;entryY=0.75;entryDx=0;entryDy=0;exitX=1;exitY=0.75;exitDx=0;exitDy=0;" edge="1" parent="1">
          <mxGeometry width="50" height="50" relative="1" as="geometry">
            <mxPoint x="530" y="240" as="sourcePoint" />
            <mxPoint x="130" y="240" as="targetPoint" />
          </mxGeometry>
        </mxCell>
        <mxCell id="2wxVQ0WupFFMfxbJMV7O-13" value="" style="endArrow=classic;html=1;exitX=0;exitY=1;exitDx=0;exitDy=0;" edge="1" parent="1" source="2wxVQ0WupFFMfxbJMV7O-6">
          <mxGeometry width="50" height="50" relative="1" as="geometry">
            <mxPoint x="390" y="340" as="sourcePoint" />
            <mxPoint x="130" y="80" as="targetPoint" />
          </mxGeometry>
        </mxCell>
        <mxCell id="2wxVQ0WupFFMfxbJMV7O-14" value="" style="endArrow=classic;html=1;exitX=0;exitY=1;exitDx=0;exitDy=0;" edge="1" parent="1" source="2wxVQ0WupFFMfxbJMV7O-6">
          <mxGeometry width="50" height="50" relative="1" as="geometry">
            <mxPoint x="390" y="340" as="sourcePoint" />
            <mxPoint x="580" y="540" as="targetPoint" />
          </mxGeometry>
        </mxCell>
        <mxCell id="2wxVQ0WupFFMfxbJMV7O-15" value="&lt;font style=&quot;font-size: 20px&quot;&gt;x&lt;/font&gt;" style="text;html=1;strokeColor=none;fillColor=none;align=center;verticalAlign=middle;whiteSpace=wrap;rounded=0;" vertex="1" parent="1">
          <mxGeometry x="570" y="530" width="60" height="20" as="geometry" />
        </mxCell>
        <mxCell id="2wxVQ0WupFFMfxbJMV7O-16" value="&lt;font style=&quot;font-size: 16px&quot;&gt;Y&lt;/font&gt;" style="text;html=1;strokeColor=none;fillColor=none;align=center;verticalAlign=middle;whiteSpace=wrap;rounded=0;" vertex="1" parent="1">
          <mxGeometry x="110" y="50" width="40" height="20" as="geometry" />
        </mxCell>
        <mxCell id="2wxVQ0WupFFMfxbJMV7O-18" value="&lt;font style=&quot;font-size: 14px&quot;&gt;（0，0）&lt;/font&gt;" style="text;html=1;strokeColor=none;fillColor=none;align=center;verticalAlign=middle;whiteSpace=wrap;rounded=0;" vertex="1" parent="1">
          <mxGeometry x="150" y="480" width="70" height="20" as="geometry" />
        </mxCell>
        <mxCell id="2wxVQ0WupFFMfxbJMV7O-19" value="&lt;font style=&quot;font-size: 14px&quot;&gt;（1，0）&lt;/font&gt;" style="text;html=1;strokeColor=none;fillColor=none;align=center;verticalAlign=middle;whiteSpace=wrap;rounded=0;" vertex="1" parent="1">
          <mxGeometry x="250" y="480" width="70" height="20" as="geometry" />
        </mxCell>
        <mxCell id="2wxVQ0WupFFMfxbJMV7O-20" value="&lt;font style=&quot;font-size: 14px&quot;&gt;（2，0）&lt;/font&gt;" style="text;html=1;strokeColor=none;fillColor=none;align=center;verticalAlign=middle;whiteSpace=wrap;rounded=0;" vertex="1" parent="1">
          <mxGeometry x="350" y="480" width="70" height="20" as="geometry" />
        </mxCell>
        <mxCell id="2wxVQ0WupFFMfxbJMV7O-21" value="&lt;font style=&quot;font-size: 14px&quot;&gt;（3，0）&lt;/font&gt;" style="text;html=1;strokeColor=none;fillColor=none;align=center;verticalAlign=middle;whiteSpace=wrap;rounded=0;" vertex="1" parent="1">
          <mxGeometry x="450" y="480" width="70" height="20" as="geometry" />
        </mxCell>
        <mxCell id="2wxVQ0WupFFMfxbJMV7O-22" value="&lt;font style=&quot;font-size: 14px&quot;&gt;（0，1）&lt;/font&gt;" style="text;html=1;strokeColor=none;fillColor=none;align=center;verticalAlign=middle;whiteSpace=wrap;rounded=0;" vertex="1" parent="1">
          <mxGeometry x="150" y="380" width="70" height="20" as="geometry" />
        </mxCell>
        <mxCell id="2wxVQ0WupFFMfxbJMV7O-23" value="&lt;font style=&quot;font-size: 14px&quot;&gt;（1，1）&lt;/font&gt;" style="text;html=1;strokeColor=none;fillColor=none;align=center;verticalAlign=middle;whiteSpace=wrap;rounded=0;" vertex="1" parent="1">
          <mxGeometry x="250" y="380" width="70" height="20" as="geometry" />
        </mxCell>
        <mxCell id="2wxVQ0WupFFMfxbJMV7O-24" value="&lt;font style=&quot;font-size: 14px&quot;&gt;（2，1）&lt;/font&gt;" style="text;html=1;strokeColor=none;fillColor=none;align=center;verticalAlign=middle;whiteSpace=wrap;rounded=0;" vertex="1" parent="1">
          <mxGeometry x="350" y="380" width="70" height="20" as="geometry" />
        </mxCell>
        <mxCell id="2wxVQ0WupFFMfxbJMV7O-25" value="&lt;font style=&quot;font-size: 14px&quot;&gt;（3，1）&lt;/font&gt;" style="text;html=1;strokeColor=none;fillColor=none;align=center;verticalAlign=middle;whiteSpace=wrap;rounded=0;" vertex="1" parent="1">
          <mxGeometry x="450" y="380" width="70" height="20" as="geometry" />
        </mxCell>
        <mxCell id="2wxVQ0WupFFMfxbJMV7O-26" value="&lt;font style=&quot;font-size: 14px&quot;&gt;（0，2）&lt;/font&gt;" style="text;html=1;strokeColor=none;fillColor=none;align=center;verticalAlign=middle;whiteSpace=wrap;rounded=0;" vertex="1" parent="1">
          <mxGeometry x="150" y="270" width="70" height="20" as="geometry" />
        </mxCell>
        <mxCell id="2wxVQ0WupFFMfxbJMV7O-27" value="&lt;font style=&quot;font-size: 14px&quot;&gt;（1，2）&lt;/font&gt;" style="text;html=1;strokeColor=none;fillColor=none;align=center;verticalAlign=middle;whiteSpace=wrap;rounded=0;" vertex="1" parent="1">
          <mxGeometry x="250" y="270" width="70" height="20" as="geometry" />
        </mxCell>
        <mxCell id="2wxVQ0WupFFMfxbJMV7O-29" value="&lt;font style=&quot;font-size: 14px&quot;&gt;（3，2）&lt;/font&gt;" style="text;html=1;strokeColor=none;fillColor=none;align=center;verticalAlign=middle;whiteSpace=wrap;rounded=0;" vertex="1" parent="1">
          <mxGeometry x="450" y="270" width="70" height="20" as="geometry" />
        </mxCell>
        <mxCell id="2wxVQ0WupFFMfxbJMV7O-30" value="&lt;font style=&quot;font-size: 14px&quot;&gt;（2，3）&lt;/font&gt;" style="text;html=1;strokeColor=none;fillColor=none;align=center;verticalAlign=middle;whiteSpace=wrap;rounded=0;" vertex="1" parent="1">
          <mxGeometry x="344" y="170" width="70" height="20" as="geometry" />
        </mxCell>
        <mxCell id="2wxVQ0WupFFMfxbJMV7O-31" value="&lt;font style=&quot;font-size: 14px&quot;&gt;（0，3）&lt;/font&gt;" style="text;html=1;strokeColor=none;fillColor=none;align=center;verticalAlign=middle;whiteSpace=wrap;rounded=0;" vertex="1" parent="1">
          <mxGeometry x="150" y="180" width="70" height="20" as="geometry" />
        </mxCell>
        <mxCell id="2wxVQ0WupFFMfxbJMV7O-32" value="&lt;font style=&quot;font-size: 14px&quot;&gt;（1，3）&lt;/font&gt;" style="text;html=1;strokeColor=none;fillColor=none;align=center;verticalAlign=middle;whiteSpace=wrap;rounded=0;" vertex="1" parent="1">
          <mxGeometry x="250" y="180" width="70" height="20" as="geometry" />
        </mxCell>
        <mxCell id="2wxVQ0WupFFMfxbJMV7O-33" value="&lt;font style=&quot;font-size: 14px&quot;&gt;（3，3）&lt;/font&gt;" style="text;html=1;strokeColor=none;fillColor=none;align=center;verticalAlign=middle;whiteSpace=wrap;rounded=0;" vertex="1" parent="1">
          <mxGeometry x="450" y="170" width="70" height="20" as="geometry" />
        </mxCell>
        <mxCell id="2wxVQ0WupFFMfxbJMV7O-37" value="" style="group" vertex="1" connectable="0" parent="1">
          <mxGeometry x="330" y="240" width="100" height="100" as="geometry" />
        </mxCell>
        <mxCell id="2wxVQ0WupFFMfxbJMV7O-36" value="" style="whiteSpace=wrap;html=1;aspect=fixed;fillColor=#f8cecc;strokeColor=#b85450;" vertex="1" parent="2wxVQ0WupFFMfxbJMV7O-37">
          <mxGeometry width="100" height="100" as="geometry" />
        </mxCell>
        <mxCell id="2wxVQ0WupFFMfxbJMV7O-28" value="&lt;font style=&quot;font-size: 14px&quot;&gt;（2，2）&lt;/font&gt;" style="text;html=1;strokeColor=none;fillColor=none;align=center;verticalAlign=middle;whiteSpace=wrap;rounded=0;" vertex="1" parent="2wxVQ0WupFFMfxbJMV7O-37">
          <mxGeometry x="15" y="40" width="70" height="20" as="geometry" />
        </mxCell>
        <mxCell id="2wxVQ0WupFFMfxbJMV7O-38" value="" style="endArrow=none;html=1;entryX=1;entryY=0;entryDx=0;entryDy=0;strokeColor=#FF0000;strokeWidth=5;" edge="1" parent="1" target="2wxVQ0WupFFMfxbJMV7O-6">
          <mxGeometry width="50" height="50" relative="1" as="geometry">
            <mxPoint x="130" y="540" as="sourcePoint" />
            <mxPoint x="440" y="300" as="targetPoint" />
          </mxGeometry>
        </mxCell>
        <mxCell id="2wxVQ0WupFFMfxbJMV7O-39" value="" style="endArrow=none;html=1;strokeColor=#FF0000;strokeWidth=5;" edge="1" parent="1">
          <mxGeometry width="50" height="50" relative="1" as="geometry">
            <mxPoint x="530" y="440" as="sourcePoint" />
            <mxPoint x="230" y="140" as="targetPoint" />
          </mxGeometry>
        </mxCell>
        <mxCell id="2wxVQ0WupFFMfxbJMV7O-40" value="" style="endArrow=none;html=1;entryX=0.64;entryY=0.004;entryDx=0;entryDy=0;strokeColor=#FF0000;strokeWidth=5;entryPerimeter=0;" edge="1" parent="1" target="2wxVQ0WupFFMfxbJMV7O-6">
          <mxGeometry width="50" height="50" relative="1" as="geometry">
            <mxPoint x="386" y="540" as="sourcePoint" />
            <mxPoint x="550" y="160" as="targetPoint" />
            <Array as="points" />
          </mxGeometry>
        </mxCell>
        <mxCell id="2wxVQ0WupFFMfxbJMV7O-42" value="" style="endArrow=none;html=1;entryX=1.004;entryY=0.394;entryDx=0;entryDy=0;strokeColor=#FF0000;strokeWidth=5;entryPerimeter=0;" edge="1" parent="1" target="2wxVQ0WupFFMfxbJMV7O-6">
          <mxGeometry width="50" height="50" relative="1" as="geometry">
            <mxPoint x="130" y="300" as="sourcePoint" />
            <mxPoint x="540" y="150" as="targetPoint" />
          </mxGeometry>
        </mxCell>
      </root>
    </mxGraphModel>
  </diagram>
</mxfile>
